<svg xmlns="http://www.w3.org/2000/svg" xmlns:xlink="http://www.w3.org/1999/xlink" width="500" zoomAndPan="magnify" viewBox="0 0 375 374.999991" height="500" preserveAspectRatio="xMidYMid meet" version="1.0"><defs><clipPath id="2f922b32c3"><path d="M 139 90.367188 L 246.863281 90.367188 L 246.863281 245.617188 L 139 245.617188 Z M 139 90.367188 " clip-rule="nonzero"/></clipPath></defs><rect x="-37.5" width="450" fill="#ffffff" y="-37.499999" height="449.999989" fill-opacity="1"/><rect x="-37.5" width="450" fill="#ffffff" y="-37.499999" height="449.999989" fill-opacity="1"/><rect x="-37.5" width="450" fill="#ffffff" y="-37.499999" height="449.999989" fill-opacity="1"/><g clip-path="url(#2f922b32c3)"><path fill="#1f3b2d" d="M 160.261719 243.792969 C 164.863281 242.828125 169.167969 242.03125 169.824219 242.015625 C 170.480469 242 171.597656 241.746094 172.308594 241.449219 C 173.796875 240.828125 174.863281 241.195312 176.421875 242.863281 C 177.542969 244.0625 178.929688 244.085938 183.230469 242.976562 C 185.585938 242.367188 186.867188 242.214844 187.996094 242.410156 C 190.554688 242.855469 193.375 242.976562 194.175781 242.683594 C 194.609375 242.519531 195.121094 241.816406 195.378906 241.015625 C 195.628906 240.253906 196.5625 238.167969 197.453125 236.386719 C 200.222656 230.847656 201.886719 228.648438 200.644531 232.167969 C 200.34375 233.023438 200.09375 234.726562 200.097656 235.949219 C 200.097656 239.144531 200.800781 240.09375 204.140625 241.410156 C 205.617188 241.992188 207.78125 243.113281 208.949219 243.902344 C 211.433594 245.574219 211.65625 245.566406 216.101562 243.644531 C 221.6875 241.230469 223.515625 240.617188 227.011719 239.984375 C 228.914062 239.640625 230.753906 239.207031 231.105469 239.027344 C 232.023438 238.546875 231.902344 237.339844 230.46875 232.75 C 229.535156 229.757812 228.859375 228.285156 227.929688 227.199219 C 226.714844 225.785156 225.734375 223.890625 226.050781 223.574219 C 226.132812 223.488281 226.367188 223.878906 226.566406 224.441406 C 226.769531 225 227.9375 226.601562 229.164062 228 C 231.292969 230.425781 232.75 232.976562 234.332031 237.050781 C 236.019531 241.382812 236.558594 242.164062 237.941406 242.28125 C 239.183594 242.382812 245.230469 240.515625 246.199219 239.726562 C 246.859375 239.191406 246.765625 237.859375 245.761719 233.402344 C 244.484375 227.75 243.476562 224.695312 242.550781 223.65625 C 241.429688 222.402344 232.777344 216.191406 232.148438 216.191406 C 231.601562 216.191406 229.15625 218.039062 226.964844 220.101562 C 225.386719 221.585938 224.878906 221.183594 226.089844 219.40625 C 227.09375 217.925781 230.648438 210.179688 230.648438 209.464844 C 230.648438 208.945312 226.257812 205.109375 224.945312 204.484375 C 224.320312 204.1875 223.648438 204.308594 221.832031 205.035156 C 219.558594 205.941406 219.472656 205.949219 217.441406 205.386719 C 216.304688 205.070312 215.371094 204.617188 215.371094 204.378906 C 215.371094 204.140625 215.851562 202 216.4375 199.625 C 217.023438 197.246094 218.261719 191.867188 219.191406 187.671875 C 220.121094 183.476562 221.453125 177.835938 222.15625 175.136719 C 222.855469 172.4375 224.160156 167.390625 225.050781 163.914062 C 225.9375 160.441406 226.746094 157.472656 226.839844 157.316406 C 227.023438 157.023438 229.929688 147.359375 230.632812 144.707031 C 230.875 143.785156 231.398438 142.929688 231.917969 142.585938 C 233.195312 141.753906 233.695312 139.859375 233.421875 136.90625 C 233.214844 134.683594 233.328125 133.941406 234.414062 130.511719 C 236.589844 123.617188 236.707031 122.953125 235.917969 122.082031 C 235.449219 121.566406 234.886719 121.363281 234.125 121.4375 C 232.902344 121.554688 232.621094 122.179688 230.472656 129.539062 C 229.132812 132.734375 229.21875 133.765625 226.378906 133.78125 C 225.632812 133.867188 225.1875 134.269531 224.628906 135.351562 C 223.628906 137.28125 222.457031 137.453125 221.046875 135.871094 C 220.097656 134.808594 219.882812 134.734375 218.152344 134.878906 C 215.015625 135.445312 213.519531 136.980469 210.390625 133.957031 C 209.78125 133.507812 208.476562 132.644531 208.046875 131.800781 C 207.613281 130.957031 206.242188 129.203125 205 127.902344 C 201.148438 123.882812 201.777344 123.363281 205.023438 123.363281 C 209.085938 122.953125 208.148438 121.304688 208.734375 119.386719 C 208.960938 118.640625 210.707031 118.683594 210.613281 118.210938 C 210.425781 115.675781 210.945312 114.113281 212.136719 113.28125 C 212.820312 111.285156 212.195312 110.8125 213.859375 110.265625 C 215.371094 109.398438 212.066406 106 209.480469 105.226562 C 206.9375 104.464844 206.5625 103.210938 206.5625 103.015625 C 206.5625 102.824219 206.148438 102.105469 205.644531 101.421875 C 205.140625 100.738281 205.894531 98.414062 205.691406 97.660156 C 205.488281 96.90625 204.957031 96.054688 204.515625 95.773438 C 203.507812 95.128906 200.796875 93.929688 193.769531 91.917969 L 188.355469 90.367188 L 185.769531 90.988281 C 179.96875 92.378906 180.589844 91.953125 179.523438 95.304688 C 178.46875 98.628906 177.921875 104.414062 178.554688 105.59375 C 178.902344 106.242188 178.820312 106.289062 177.558594 106.167969 C 176.671875 106.082031 175.667969 106.300781 174.71875 106.785156 C 173.398438 107.457031 173.128906 107.839844 172.09375 110.542969 C 169.605469 117.019531 160.988281 142.6875 160.652344 144.617188 C 160.472656 145.65625 160.6875 146.359375 161.824219 148.433594 C 163.125 150.804688 163.359375 151.03125 165.316406 151.8125 C 166.46875 152.273438 168.210938 152.746094 169.183594 152.859375 L 170.957031 153.070312 L 170.113281 154.203125 C 169.648438 154.824219 168.878906 156.480469 168.402344 157.878906 C 167.667969 160.046875 167.53125 161.175781 167.5 165.507812 C 169.472656 170.601562 169.003906 175.539062 168.800781 181.203125 L 168.488281 185.894531 C 168.097656 189.570312 167.226562 192.265625 165.09375 198.207031 C 164.097656 200.496094 163.734375 201.964844 163.398438 205.113281 C 163.160156 207.308594 162.691406 210.476562 162.351562 212.152344 C 161.976562 214.4375 161.453125 215.496094 160.796875 216.136719 C 160.175781 216.722656 156.789062 221.648438 156.832031 223.128906 C 156.878906 224.707031 156.953125 224.679688 158.832031 226.488281 C 160.210938 227.820312 162.0625 228.910156 162.34375 228.910156 C 162.628906 228.910156 163.265625 229.527344 163.761719 230.28125 L 164.660156 231.652344 L 163.089844 232.46875 C 161.636719 233.222656 161.445312 233.242188 160.457031 232.730469 C 159.679688 232.328125 158.214844 232.179688 155.054688 232.179688 C 151.074219 232.179688 150.511719 232.09375 148.078125 231.089844 C 144.683594 229.691406 143.972656 229.707031 142.855469 231.179688 C 140.621094 234.136719 139.394531 237.011719 139.136719 239.886719 C 138.894531 242.601562 138.910156 242.699219 139.753906 243.054688 C 142.101562 244.046875 148.558594 245.617188 150.132812 245.582031 C 151.101562 245.558594 155.660156 244.753906 160.261719 243.792969 Z M 180.667969 230.90625 C 179.683594 230.605469 178.417969 230.363281 177.851562 230.363281 C 177.035156 230.363281 176.722656 230.121094 176.328125 229.183594 C 175.652344 227.570312 174.910156 227.035156 173.03125 226.824219 L 171.433594 226.644531 L 170.808594 224.054688 C 170.464844 222.628906 170.046875 221.203125 169.882812 220.890625 C 169.394531 219.964844 172.597656 208.570312 174.261719 205.296875 C 174.621094 204.597656 175.585938 202.238281 176.40625 200.054688 C 177.230469 197.871094 178.464844 195.367188 179.160156 194.476562 C 180.539062 192.707031 180.824219 191.964844 181.722656 187.746094 C 182.738281 184.621094 184.234375 181.90625 185.335938 178.78125 C 186.617188 174.652344 188.871094 173.71875 189.242188 173.734375 C 195.011719 174.125 198.4375 175.375 199.816406 175.898438 C 200.269531 176.132812 200.6875 176.363281 200.746094 176.414062 C 200.804688 176.460938 200.527344 177.050781 200.128906 177.726562 C 198.957031 179.722656 195.425781 188.519531 194.960938 189.355469 L 193.515625 191.066406 L 192.109375 192.792969 C 189.839844 196.367188 189.765625 198.21875 191.800781 200.425781 C 193.464844 202.230469 194.867188 203.101562 196.164062 203.136719 C 196.707031 203.152344 197.664062 203.894531 198.863281 205.226562 L 200.726562 207.292969 L 199.410156 209.269531 C 198.15625 211.152344 197.953125 211.292969 195.183594 212.175781 C 193.582031 212.6875 192.070312 213.238281 191.820312 213.398438 C 191.496094 213.609375 191.363281 214.984375 191.363281 218.15625 L 191.363281 222.617188 L 189.152344 223.289062 C 186.957031 223.953125 186.933594 223.972656 185.648438 226.523438 C 184.621094 228.5625 182.761719 231.472656 182.5 231.449219 C 182.472656 231.449219 181.648438 231.203125 180.667969 230.90625 Z M 210.222656 202.871094 C 210.03125 202.636719 209.242188 202.335938 208.472656 202.207031 C 206.683594 201.90625 206.335938 201.46875 204.664062 197.414062 L 203.289062 194.078125 L 204.203125 192.507812 C 204.707031 191.648438 205.773438 189.796875 206.570312 188.398438 C 207.371094 187 209.046875 184.300781 210.296875 182.402344 C 214.246094 176.40625 216.101562 172.613281 216.089844 170.566406 C 216.082031 168.582031 214.992188 165.800781 214.089844 165.457031 C 206.242188 162.128906 203.230469 159.957031 196.941406 157.460938 C 195.574219 157.113281 194.316406 156.714844 194.148438 156.574219 C 193.980469 156.433594 194.664062 155.113281 195.667969 153.640625 C 196.898438 151.839844 197.355469 150.058594 198.097656 148.582031 C 198.859375 147.0625 198.910156 147.019531 199.777344 146.492188 C 200.390625 146.117188 201.003906 146.140625 201.6875 145.914062 C 202.664062 145.59375 203.757812 145.808594 205.582031 146.238281 C 206.867188 146.539062 208.875 146.789062 210.046875 146.792969 C 211.878906 146.796875 212.375 146.957031 213.617188 147.9375 C 214.976562 149.011719 215.1875 149.066406 217.3125 148.867188 C 220.414062 148.578125 220.742188 148.398438 221.726562 146.457031 C 222.375 145.179688 222.964844 144.582031 224.085938 144.078125 C 226.777344 142.867188 226.777344 142.855469 222.992188 156.96875 C 222.644531 158.269531 221.6875 161.949219 220.867188 165.144531 C 220.042969 168.34375 219.046875 171.777344 218.648438 172.773438 C 217.164062 176.484375 213.25 192.035156 211.664062 200.515625 C 211.203125 202.984375 210.769531 204.621094 210.699219 204.148438 C 210.628906 203.679688 210.414062 203.105469 210.222656 202.871094 Z M 210.222656 202.871094 " fill-opacity="1" fill-rule="nonzero"/></g></svg>