<svg width="207" height="46" viewBox="0 0 207 46" fill="none" xmlns="http://www.w3.org/2000/svg">
<path fill-rule="evenodd" clip-rule="evenodd" d="M1.2824 9.20835C1.2824 9.20835 3.25102 8.18681 4.62698 10.6679C6.00248 13.1495 19.6756 34.7176 19.6756 34.7176L35.6897 9.4577C35.6897 9.4577 36.054 8.81713 36.8125 9.27079C37.5715 9.72445 35.781 12.0191 35.781 12.0191L20.527 36.5284C20.1541 37.1275 19.2019 37.163 18.7743 36.5936L0.885639 12.7766C0.885639 12.7766 -1.3498 10.6055 1.2824 9.20835Z" fill="#BF4E5F"/>
<path fill-rule="evenodd" clip-rule="evenodd" d="M20.0329 29.6001L28.2537 16.7418C24.0426 14.3327 22.6019 9 22.6019 9H16.5861C15.1518 13.7817 11.0414 16.7418 11.0414 16.7418L19.0053 29.5758V20.783C18.1189 20.5808 17.4639 19.8676 17.4639 19.0188C17.4639 18.0127 18.3841 17.1972 19.5191 17.1972C20.6542 17.1972 21.5743 18.0127 21.5743 19.0188C21.5743 19.8676 20.9194 20.5808 20.0329 20.783V29.6001Z" fill="#FF7C02"/>
<path d="M61.4766 22.4844C63.3125 22.875 64.6862 23.5 65.5977 24.3594C66.8607 25.5573 67.4922 27.0221 67.4922 28.7539C67.4922 30.069 67.0755 31.332 66.2422 32.543C65.4089 33.7409 64.263 34.6198 62.8047 35.1797C61.3594 35.7266 59.1458 36 56.1641 36H43.6641V35.2773H44.6602C45.7669 35.2773 46.5612 34.9258 47.043 34.2227C47.3424 33.7669 47.4922 32.7969 47.4922 31.3125V14.2031C47.4922 12.5625 47.3034 11.5273 46.9258 11.0977C46.418 10.5247 45.6628 10.2383 44.6602 10.2383H43.6641V9.51562H55.1094C57.2448 9.51562 58.957 9.67188 60.2461 9.98438C62.1992 10.4531 63.6901 11.2865 64.7188 12.4844C65.7474 13.6693 66.2617 15.0365 66.2617 16.5859C66.2617 17.9141 65.8581 19.1055 65.0508 20.1602C64.2435 21.2018 63.0521 21.9766 61.4766 22.4844ZM51.2422 21.4297C51.724 21.5208 52.2708 21.5924 52.8828 21.6445C53.5078 21.6836 54.1914 21.7031 54.9336 21.7031C56.8346 21.7031 58.2604 21.5013 59.2109 21.0977C60.1745 20.681 60.9102 20.0495 61.418 19.2031C61.9258 18.3568 62.1797 17.4323 62.1797 16.4297C62.1797 14.8802 61.5482 13.5586 60.2852 12.4648C59.0221 11.3711 57.1797 10.8242 54.7578 10.8242C53.4557 10.8242 52.2839 10.9674 51.2422 11.2539V21.4297ZM51.2422 34.0859C52.7526 34.4375 54.2435 34.6133 55.7148 34.6133C58.0716 34.6133 59.8685 34.0859 61.1055 33.0312C62.3424 31.9635 62.9609 30.6484 62.9609 29.0859C62.9609 28.0573 62.681 27.0677 62.1211 26.1172C61.5612 25.1667 60.6497 24.418 59.3867 23.8711C58.1237 23.3242 56.5612 23.0508 54.6992 23.0508C53.8919 23.0508 53.2018 23.0638 52.6289 23.0898C52.056 23.1159 51.5938 23.1615 51.2422 23.2266V34.0859ZM79.6797 17.582C82.388 17.582 84.5625 18.6107 86.2031 20.668C87.5964 22.4258 88.293 24.444 88.293 26.7227C88.293 28.3242 87.9089 29.9453 87.1406 31.5859C86.3724 33.2266 85.3112 34.4635 83.957 35.2969C82.6159 36.1302 81.1185 36.5469 79.4648 36.5469C76.7695 36.5469 74.6276 35.4727 73.0391 33.3242C71.6979 31.5143 71.0273 29.4831 71.0273 27.2305C71.0273 25.5898 71.431 23.9622 72.2383 22.3477C73.0586 20.7201 74.1328 19.5221 75.4609 18.7539C76.7891 17.9727 78.1953 17.582 79.6797 17.582ZM79.0742 18.8516C78.3841 18.8516 77.6875 19.0599 76.9844 19.4766C76.2943 19.8802 75.7344 20.5964 75.3047 21.625C74.875 22.6536 74.6602 23.9753 74.6602 25.5898C74.6602 28.194 75.1745 30.4401 76.2031 32.3281C77.2448 34.2161 78.612 35.1602 80.3047 35.1602C81.5677 35.1602 82.6094 34.6393 83.4297 33.5977C84.25 32.556 84.6602 30.7656 84.6602 28.2266C84.6602 25.0495 83.9766 22.5495 82.6094 20.7266C81.6849 19.4766 80.5065 18.8516 79.0742 18.8516ZM99.6797 17.582C102.388 17.582 104.562 18.6107 106.203 20.668C107.596 22.4258 108.293 24.444 108.293 26.7227C108.293 28.3242 107.909 29.9453 107.141 31.5859C106.372 33.2266 105.311 34.4635 103.957 35.2969C102.616 36.1302 101.118 36.5469 99.4648 36.5469C96.7695 36.5469 94.6276 35.4727 93.0391 33.3242C91.6979 31.5143 91.0273 29.4831 91.0273 27.2305C91.0273 25.5898 91.431 23.9622 92.2383 22.3477C93.0586 20.7201 94.1328 19.5221 95.4609 18.7539C96.7891 17.9727 98.1953 17.582 99.6797 17.582ZM99.0742 18.8516C98.3841 18.8516 97.6875 19.0599 96.9844 19.4766C96.2943 19.8802 95.7344 20.5964 95.3047 21.625C94.875 22.6536 94.6602 23.9753 94.6602 25.5898C94.6602 28.194 95.1745 30.4401 96.2031 32.3281C97.2448 34.2161 98.612 35.1602 100.305 35.1602C101.568 35.1602 102.609 34.6393 103.43 33.5977C104.25 32.556 104.66 30.7656 104.66 28.2266C104.66 25.0495 103.977 22.5495 102.609 20.7266C101.685 19.4766 100.507 18.8516 99.0742 18.8516ZM116.223 8.22656V26.0391L120.773 21.8789C121.737 20.9935 122.297 20.4336 122.453 20.1992C122.557 20.043 122.609 19.8867 122.609 19.7305C122.609 19.4701 122.499 19.2487 122.277 19.0664C122.069 18.8711 121.717 18.7604 121.223 18.7344V18.1094H128.996V18.7344C127.928 18.7604 127.036 18.9232 126.32 19.2227C125.617 19.5221 124.842 20.056 123.996 20.8242L119.406 25.0625L123.996 30.8633C125.272 32.4648 126.132 33.4805 126.574 33.9102C127.199 34.5221 127.746 34.9193 128.215 35.1016C128.54 35.2318 129.107 35.2969 129.914 35.2969V36H121.223V35.2969C121.717 35.2839 122.049 35.2122 122.219 35.082C122.401 34.9388 122.492 34.7435 122.492 34.4961C122.492 34.1966 122.232 33.7148 121.711 33.0508L116.223 26.0391V31.9766C116.223 33.1354 116.301 33.8971 116.457 34.2617C116.626 34.6263 116.861 34.8867 117.16 35.043C117.46 35.1992 118.111 35.2839 119.113 35.2969V36H110.012V35.2969C110.923 35.2969 111.607 35.1862 112.062 34.9648C112.336 34.8216 112.544 34.6003 112.688 34.3008C112.883 33.8711 112.98 33.1289 112.98 32.0742V15.7852C112.98 13.7148 112.935 12.4518 112.844 11.9961C112.753 11.5273 112.603 11.2083 112.395 11.0391C112.186 10.8568 111.913 10.7656 111.574 10.7656C111.301 10.7656 110.891 10.8763 110.344 11.0977L110.012 10.4141L115.324 8.22656H116.223ZM152.023 35.2773V36H140.676V35.2773H141.613C142.707 35.2773 143.501 34.9583 143.996 34.3203C144.309 33.9036 144.465 32.901 144.465 31.3125V14.2031C144.465 12.862 144.38 11.9766 144.211 11.5469C144.081 11.2214 143.814 10.9414 143.41 10.707C142.837 10.3945 142.238 10.2383 141.613 10.2383H140.676V9.51562H152.023V10.2383H151.066C149.986 10.2383 149.198 10.5573 148.703 11.1953C148.378 11.612 148.215 12.6146 148.215 14.2031V31.3125C148.215 32.6536 148.299 33.5391 148.469 33.9688C148.599 34.2943 148.872 34.5742 149.289 34.8086C149.849 35.1211 150.441 35.2773 151.066 35.2773H152.023ZM159.465 21.3711C161.561 18.8451 163.56 17.582 165.461 17.582C166.438 17.582 167.277 17.8294 167.98 18.3242C168.684 18.806 169.243 19.6068 169.66 20.7266C169.947 21.5078 170.09 22.7057 170.09 24.3203V31.957C170.09 33.0898 170.181 33.8581 170.363 34.2617C170.507 34.5872 170.734 34.8411 171.047 35.0234C171.372 35.2057 171.965 35.2969 172.824 35.2969V36H163.977V35.2969H164.348C165.181 35.2969 165.76 35.1732 166.086 34.9258C166.424 34.6654 166.659 34.2878 166.789 33.793C166.841 33.5977 166.867 32.9857 166.867 31.957V24.6328C166.867 23.0052 166.652 21.8268 166.223 21.0977C165.806 20.3555 165.096 19.9844 164.094 19.9844C162.544 19.9844 161.001 20.8307 159.465 22.5234V31.957C159.465 33.168 159.536 33.9167 159.68 34.2031C159.862 34.5807 160.109 34.8607 160.422 35.043C160.747 35.2122 161.398 35.2969 162.375 35.2969V36H153.527V35.2969H153.918C154.829 35.2969 155.441 35.069 155.754 34.6133C156.079 34.1445 156.242 33.2591 156.242 31.957V25.3164C156.242 23.168 156.19 21.8594 156.086 21.3906C155.995 20.9219 155.845 20.6029 155.637 20.4336C155.441 20.2643 155.174 20.1797 154.836 20.1797C154.471 20.1797 154.035 20.2773 153.527 20.4727L153.234 19.7695L158.625 17.582H159.465V21.3711ZM181.242 19.5156V31.2734C181.242 32.9401 181.424 33.9948 181.789 34.4375C182.271 35.0104 182.915 35.2969 183.723 35.2969H185.344V36H174.66V35.2969H175.461C175.982 35.2969 176.457 35.1667 176.887 34.9062C177.316 34.6458 177.609 34.2943 177.766 33.8516C177.935 33.4089 178.02 32.5495 178.02 31.2734V19.5156H174.543V18.1094H178.02V16.9375C178.02 15.1536 178.306 13.6432 178.879 12.4062C179.452 11.1693 180.324 10.1732 181.496 9.41797C182.681 8.64974 184.009 8.26562 185.48 8.26562C186.848 8.26562 188.104 8.70833 189.25 9.59375C190.005 10.1797 190.383 10.8372 190.383 11.5664C190.383 11.957 190.214 12.3281 189.875 12.6797C189.536 13.0182 189.172 13.1875 188.781 13.1875C188.482 13.1875 188.163 13.0833 187.824 12.875C187.499 12.6536 187.095 12.1914 186.613 11.4883C186.132 10.7721 185.689 10.2904 185.285 10.043C184.882 9.79557 184.432 9.67188 183.938 9.67188C183.339 9.67188 182.831 9.83464 182.414 10.1602C181.997 10.4727 181.698 10.9674 181.516 11.6445C181.333 12.3086 181.242 14.0339 181.242 16.8203V18.1094H185.852V19.5156H181.242ZM196.32 17.582C199.029 17.582 201.203 18.6107 202.844 20.668C204.237 22.4258 204.934 24.444 204.934 26.7227C204.934 28.3242 204.549 29.9453 203.781 31.5859C203.013 33.2266 201.952 34.4635 200.598 35.2969C199.257 36.1302 197.759 36.5469 196.105 36.5469C193.41 36.5469 191.268 35.4727 189.68 33.3242C188.339 31.5143 187.668 29.4831 187.668 27.2305C187.668 25.5898 188.072 23.9622 188.879 22.3477C189.699 20.7201 190.773 19.5221 192.102 18.7539C193.43 17.9727 194.836 17.582 196.32 17.582ZM195.715 18.8516C195.025 18.8516 194.328 19.0599 193.625 19.4766C192.935 19.8802 192.375 20.5964 191.945 21.625C191.516 22.6536 191.301 23.9753 191.301 25.5898C191.301 28.194 191.815 30.4401 192.844 32.3281C193.885 34.2161 195.253 35.1602 196.945 35.1602C198.208 35.1602 199.25 34.6393 200.07 33.5977C200.891 32.556 201.301 30.7656 201.301 28.2266C201.301 25.0495 200.617 22.5495 199.25 20.7266C198.326 19.4766 197.147 18.8516 195.715 18.8516Z" fill="#BF4E5F" fill-opacity="0.91"/>
</svg>
